<?xml version="1.0" encoding="utf-8"?>
<!-- Generator: Adobe Illustrator 24.0.1, SVG Export Plug-In . SVG Version: 6.00 Build 0)  -->
<svg version="1.1" id="Layer_1" xmlns="http://www.w3.org/2000/svg" xmlns:xlink="http://www.w3.org/1999/xlink" x="0px" y="0px"
	 viewBox="0 0 148.7 156.7" style="enable-background:new 0 0 148.7 156.7;" xml:space="preserve">
<style type="text/css">
	.st0{fill:#189CD9;}
	.st1{fill:#FFFFFF;}
</style>
<g>
	<g>
		<g>
			<path class="st0" d="M77.3,29.2c-0.2,0-0.3-0.1-0.5-0.2C70,23.8,62,21.2,53.5,21.5c-0.4,0-0.8-0.3-0.8-0.7c0-0.4,0.3-0.8,0.7-0.8
				c8.9-0.3,17.2,2.4,24.3,7.8c0.3,0.3,0.4,0.7,0.1,1.1C77.7,29.1,77.5,29.2,77.3,29.2z"/>
		</g>
	</g>
	<g>
		<g>
			<path class="st0" d="M74.9,31.2c-0.2,0-0.3,0-0.5-0.2c-5.8-4.3-12.7-6.5-20-6.5l0,0c-0.4,0-0.8-0.3-0.8-0.8
				c0-0.4,0.3-0.8,0.8-0.8c7.6-0.1,14.8,2.2,20.9,6.8c0.3,0.3,0.4,0.7,0.2,1.1C75.3,31,75.1,31.2,74.9,31.2z"/>
		</g>
	</g>
	<g>
		<g>
			<path class="st0" d="M72.4,33.1c-0.2,0-0.3,0-0.4-0.1c-4.9-3.4-10.7-5.3-16.6-5.4c-0.4,0-0.8-0.4-0.8-0.8s0.3-0.8,0.8-0.8l0,0
				c6.3,0.1,12.3,2.1,17.5,5.7c0.3,0.2,0.4,0.7,0.2,1.1C72.9,33,72.7,33.1,72.4,33.1z"/>
		</g>
	</g>
	<g>
		<g>
			<path class="st0" d="M70,35.1c-0.1,0-0.3,0-0.4-0.1c-4-2.6-8.6-4.1-13.3-4.4c-0.4,0-0.7-0.4-0.7-0.8s0.4-0.7,0.8-0.7
				c5,0.3,9.8,1.9,14,4.6c0.4,0.2,0.5,0.7,0.2,1.1C70.5,34.9,70.2,35.1,70,35.1z"/>
		</g>
	</g>
</g>
<g>
	<g>
		<g>
			<g>
				
					<rect x="26.4" y="118.1" transform="matrix(0.499 -0.8666 0.8666 0.499 -88.155 84.1138)" class="st0" width="4.6" height="0.3"/>
			</g>
			<g>
				
					<rect x="25.7" y="117.7" transform="matrix(0.5004 -0.8658 0.8658 0.5004 -88.0174 83.0689)" class="st0" width="4.6" height="0.3"/>
			</g>
			<g>
				<polygon class="st0" points="25.8,119.3 26.1,119.5 28.4,115.5 28.1,115.3 				"/>
			</g>
			<g>
				
					<rect x="24" y="116.8" transform="matrix(0.4994 -0.8664 0.8664 0.4994 -88.126 81.3915)" class="st0" width="4.7" height="0.3"/>
			</g>
			<g>
				<polygon class="st0" points="24.3,118.5 24.6,118.6 26.9,114.6 26.6,114.4 				"/>
			</g>
			<g>
				<polygon class="st0" points="23.5,118 23.8,118.2 26.1,114.2 25.8,114 				"/>
			</g>
			<g>
				
					<rect x="21.8" y="115.5" transform="matrix(0.5003 -0.8659 0.8659 0.5003 -88.0726 78.6063)" class="st0" width="4.6" height="0.3"/>
			</g>
			<g>
				<polygon class="st0" points="22,117.1 22.3,117.3 24.6,113.3 24.3,113.1 				"/>
			</g>
		</g>
		<g>
			<path class="st0" d="M16.4,123c-0.2,0.4-0.1,0.8,0.3,1l7.6,4.4c0.4,0.2,0.8,0.1,1-0.3l8.8-15.2c0.2-0.4,0.1-0.8-0.3-1l-7.6-4.4
				c-0.4-0.2-0.8-0.1-1,0.3L16.4,123z M32.2,111.8l0.3,0.2l-1.6,2.7l-0.3-0.2L32.2,111.8z M31.4,111.4l0.3,0.2l-1.6,2.7l-0.3-0.2
				L31.4,111.4z M30.7,111l0.3,0.2l-1.6,2.7l-0.3-0.2L30.7,111z M29.9,110.5l0.3,0.2l-1.6,2.7l-0.3-0.2L29.9,110.5z M29.1,110.1
				l0.3,0.2l-1.6,2.7l-0.3-0.2L29.1,110.1z M28.3,109.6l0.3,0.2l-1.6,2.7l-0.3-0.2L28.3,109.6z M27.6,109.2l0.3,0.2l-1.6,2.7
				l-0.3-0.2L27.6,109.2z M26.8,108.7l0.3,0.2l-1.6,2.7l-0.3-0.2L26.8,108.7z M23.8,112.8l6.7,3.8l-2.3,4l-6.7-3.8L23.8,112.8z"/>
		</g>
		<g>
			<path class="st0" d="M28,108.3L28,108.3c0.2-0.3,0.5-0.4,0.7-0.2l3.4,2c0.2,0.1,0.3,0.4,0.2,0.7l0,0L28,108.3z"/>
		</g>
	</g>
</g>
<g>
	<path class="st1" d="M87.4,57.3H70.1v-6.8H112v6.8H94.7v46.9h-7.3V57.3z"/>
</g>
<g>
	<circle class="st1" cx="49.3" cy="77.3" r="28.2"/>
</g>
<g>
	<g>
		<path class="st0" d="M120.8,88.9h5.8c0.6,0,1.5,0,2.1,0h5.6c0.6,0,1.4-0.3,1.9-0.7l6-4.9c0.5-0.4,0.5-1,0-1.3l-6-4.9
			c-0.5-0.4-1.3-0.7-1.9-0.7h-5.6c-0.6,0-1.5,0-2.1,0h-5.8"/>
	</g>
	<g>
		<path class="st0" d="M112,77.9h8.6v9.6H112V77.9z M117.5,81.7v-1.9h-1.7v1.9H117.5z M117.5,85.6v-1.8h-1.7v1.9L117.5,85.6
			L117.5,85.6z"/>
	</g>
</g>
<g>
	<path class="st0" d="M0,142.1c2.9,0,6.3-0.3,8.1-1.4c2.3-1.5,3.6-3.4,4.9-5.5c1.4-2.3,5.8-9.6,5.8-9.7l3.4,2
		c-0.2,0.3-4.4,7.5-5.8,9.8c-1.5,2.4-3.2,4.8-6.2,6.8c-2.7,1.7-6.7,2.1-10.2,2.1V142.1z"/>
</g>
<rect x="3.7" y="50.5" class="st1" width="7.3" height="53.7"/>
</svg>
